<svg width="263" height="63" viewBox="0 0 263 63" fill="none" xmlns="http://www.w3.org/2000/svg">
<path d="M0 0.541016C1.31077 0.598263 2.99197 0.655511 5.0436 0.712759C7.15223 0.770006 9.23236 0.79863 11.284 0.79863C14.0195 0.79863 16.6125 0.770006 19.0631 0.712759C21.5707 0.655511 23.3373 0.626887 24.3632 0.626887C29.2073 0.626887 33.2251 1.25662 36.4165 2.51608C39.6649 3.77554 42.0585 5.55025 43.5972 7.84018C45.193 10.0729 45.9908 12.649 45.9908 15.5687C45.9908 17.3434 45.6204 19.2326 44.8795 21.2363C44.1956 23.1827 42.9704 25.0147 41.2037 26.7321C39.437 28.3923 37.0434 29.7663 34.0229 30.854C31.0025 31.9418 27.1557 32.4856 22.4825 32.4856H16.584V30.7682H21.6277C25.446 30.7682 28.3525 30.1384 30.3471 28.879C32.3987 27.5622 33.7665 25.8448 34.4504 23.7266C35.1912 21.5512 35.5617 19.1467 35.5617 16.5133C35.5617 11.9907 34.5928 8.49854 32.6552 6.03686C30.7175 3.51793 27.3551 2.25847 22.568 2.25847C20.1174 2.25847 18.4932 2.74508 17.6954 3.7183C16.9545 4.69152 16.584 6.66659 16.584 9.6435V52.2363C16.584 54.2972 16.755 55.8429 17.097 56.8734C17.4389 57.9039 18.0943 58.5909 19.0631 58.9344C20.0319 59.2778 21.4567 59.5068 23.3373 59.6213V62.541H0V59.6213C1.93766 59.5068 3.3909 59.2778 4.35972 58.9344C5.32855 58.5909 5.95544 57.9039 6.24039 56.8734C6.58233 55.8429 6.7533 54.2972 6.7533 52.2363V9.6435C6.7533 7.52531 6.58233 5.97961 6.24039 5.00639C5.95544 3.97592 5.30006 3.28894 4.27424 2.94545C3.30541 2.54471 1.88067 2.31571 0 2.25847V0.541016ZM16.584 32.4856C16.584 32.4856 19.5208 32.4938 21.4025 32.4856C22.3557 32.4815 23.8433 32.4697 23.8433 32.4697C23.8433 32.4697 27.8618 32.2191 29.2115 32.0281C33.4857 32.6005 36.616 33.9454 38.5536 35.6629C40.5483 37.3803 41.916 40.0138 42.6569 43.5632L44.794 52.3222C45.3069 54.7838 45.8483 56.5299 46.4182 57.5604C47.0451 58.5909 47.957 59.1061 49.1538 59.1061C50.0656 59.0489 50.8065 58.7912 51.3764 58.3332C52.0032 57.818 52.6586 57.131 53.3425 56.2723L54.5393 57.2169C53.2285 58.9916 51.8608 60.3369 50.436 61.2529C49.0113 62.1116 47.1021 62.541 44.7085 62.541C42.258 62.541 40.1494 61.9113 38.3827 60.6518C36.673 59.3351 35.4477 56.8734 34.7068 53.2668L32.9971 44.6795C32.4842 42.2178 31.9143 40.0996 31.2874 38.3249C30.6605 36.493 29.7772 35.0618 28.6374 34.0313C27.5546 33.0008 25.9519 32.4697 23.8433 32.4697L16.584 32.4856Z" fill="#EFD09E"/>
<path fill-rule="evenodd" clip-rule="evenodd" d="M66.9917 10.229C67.4085 10.2173 67.8058 10.4066 68.0603 10.7382L72.4581 16.4677C72.738 16.8324 72.8063 17.3181 72.6377 17.7463L68.973 27.0567C68.7906 27.5199 68.362 27.8389 67.8675 27.8796C67.373 27.9203 66.8984 27.6755 66.6433 27.2484L61.5127 18.6542C61.251 18.2158 61.2676 17.6647 61.5553 17.2431L65.953 10.7974C66.1886 10.452 66.5748 10.2407 66.9917 10.229ZM67.0901 13.7601L64.1775 18.0291L67.5203 23.6284L69.9421 17.4758L67.0901 13.7601Z" fill="#EFD09E"/>
<path fill-rule="evenodd" clip-rule="evenodd" d="M80.4618 16.142C80.1672 16.2369 79.5505 16.5974 79.0915 16.943C78.6324 17.2886 78.0117 17.9363 77.7121 18.3824C77.4123 18.8284 77.0764 19.6306 76.9654 20.1652C76.8494 20.7245 76.8114 21.5588 76.8762 22.1308C76.938 22.6775 77.1295 23.5346 77.3018 24.0357C77.4741 24.5367 77.7715 25.2533 77.9627 25.628C78.1538 26.0027 78.6836 26.6569 79.14 27.0819C79.5965 27.5068 80.5865 28.3205 81.3402 28.8899C82.0939 29.4595 83.3272 30.3389 84.0808 30.8442C84.8345 31.3495 86.0099 32.3101 86.693 32.9787C87.655 33.9206 87.9349 34.3037 87.9349 34.6788C87.9349 34.945 87.692 35.6188 87.3953 36.1758C87.0721 36.7822 86.3746 37.6424 85.6566 38.3201C84.9769 38.9614 84.0456 39.6402 83.5063 39.8871C82.9832 40.1268 82.1898 40.3579 81.7429 40.4008C81.2962 40.4438 80.7443 40.4321 80.5166 40.3751C80.1468 40.2822 80.0937 40.1566 80.0163 39.1924C79.9683 38.5949 79.7694 37.7995 79.5702 37.409C79.3726 37.0214 78.8873 36.4272 78.4919 36.0886C78.0964 35.75 77.5122 35.4241 77.1934 35.3643C76.8746 35.3045 76.2128 35.2927 75.7225 35.3381C75.2323 35.3834 74.7218 35.4505 74.5882 35.4872C74.4277 35.5311 74.2922 35.3403 74.1893 34.9262C74.1036 34.5811 73.7695 33.9905 73.4469 33.6133C73.1244 33.2364 72.5279 32.7669 72.1216 32.5702C71.5862 32.3109 71.0497 32.2124 70.1729 32.2124C69.1436 32.2124 68.7941 32.2974 67.8327 32.7814L66.7025 33.3503L66.1494 32.7795C65.8452 32.4656 65.2796 32.0553 64.8925 31.8678C64.4524 31.6548 63.8368 31.527 63.2501 31.527C62.4961 31.527 62.1292 31.6363 61.383 32.0839C60.8724 32.3901 60.1622 33.0263 59.8051 33.4975C59.4478 33.9687 58.9867 34.7783 58.7804 35.2966C58.4959 36.0115 58.4031 36.6114 58.3962 37.7812C58.3883 39.1299 58.449 39.4573 58.8805 40.3915C59.1895 41.061 59.6746 41.7327 60.1799 42.1907C60.6234 42.5927 62.1359 43.7292 63.5408 44.716C64.9457 45.703 66.3876 46.7401 66.7448 47.021C67.1021 47.3016 67.7498 48.0749 68.1842 48.7391C68.6184 49.4034 69.2045 50.2422 69.4867 50.603C69.7688 50.9639 71.0096 52.1484 72.2441 53.2353C73.4786 54.3219 75.4277 55.9187 76.5757 56.7835C77.7237 57.6482 79.4747 58.8394 80.4668 59.4305C81.4587 60.0217 82.9704 60.809 83.8258 61.1802C84.6814 61.5513 85.9704 62.0093 86.6903 62.198C87.9257 62.5216 88.5469 62.541 97.7073 62.541H107.415L108.68 62.0191C109.376 61.7321 110.447 61.2226 111.059 60.8871C111.672 60.5518 112.659 59.9315 113.253 59.5088C113.847 59.0861 114.865 58.2083 115.515 57.5579C116.165 56.9076 116.998 55.9314 117.366 55.3888C117.734 54.8459 118.249 53.9779 118.511 53.4596C118.774 52.9412 119.165 51.9976 119.381 51.3628C119.597 50.7277 119.903 49.4301 120.062 48.4791C120.28 47.1745 120.329 46.1538 120.26 44.3217C120.192 42.4977 120.076 41.5951 119.794 40.6941C119.587 40.0344 119.15 38.9811 118.823 38.3533C118.495 37.7257 117.713 36.5716 117.084 35.7889C116.455 35.0062 115.209 33.7216 114.314 32.9341C113.419 32.1466 111.954 30.9412 111.059 30.2556C110.164 29.57 108.507 28.3934 107.376 27.641C106.246 26.8886 104.743 25.9602 104.036 25.5781C103.33 25.1958 101.21 24.2092 99.3258 23.3856C97.4416 22.5617 93.7031 20.8643 91.0181 19.6133C88.3332 18.3625 85.4853 17.0229 84.6894 16.6367C83.4212 16.021 83.1038 15.9365 82.1201 15.9518C81.5027 15.9614 80.7564 16.0471 80.4618 16.142ZM87.5067 21.846C90.2388 23.138 94.6324 25.1528 97.2703 26.3233C99.9082 27.494 102.768 28.8707 103.627 29.3829C104.485 29.8951 106.046 30.9298 107.097 31.6824C108.148 32.435 109.605 33.5343 110.333 34.1251C111.062 34.7161 112.147 35.6635 112.743 36.2307C113.339 36.7978 114.197 37.7642 114.649 38.3783C115.101 38.9923 115.625 39.8031 115.813 40.1801C116.001 40.557 116.276 41.2896 116.425 41.8079C116.573 42.3262 116.747 43.2594 116.81 43.8814C116.873 44.5035 116.834 45.7962 116.723 46.7542C116.611 47.7122 116.407 48.938 116.268 49.4784C116.129 50.0189 115.751 51.0223 115.428 51.7086C115.104 52.3948 114.481 53.4219 114.043 53.9913C113.605 54.5605 112.762 55.4256 112.169 55.9136C111.576 56.4016 110.667 57.056 110.151 57.3678C109.634 57.6797 108.605 58.1992 107.865 58.5224L106.52 59.1099L97.7842 59.1089C90.829 59.1082 88.8105 59.0577 87.882 58.861C87.2407 58.7249 86.0397 58.3152 85.2134 57.9506C84.3873 57.5858 83.1007 56.9237 82.3544 56.4794C81.6081 56.0349 80.3246 55.1902 79.5019 54.6021C78.6793 54.014 77.4784 53.0987 76.8333 52.5679L75.6605 51.6027L76.1444 50.1174C76.4106 49.3004 76.7527 47.9524 76.9048 47.1216L77.1809 45.611L78.3582 45.0683C79.0057 44.7696 79.6088 44.5707 79.6984 44.626C79.7879 44.6814 79.9409 45.1303 80.0386 45.6233C80.1362 46.1164 80.2933 47.3883 80.3876 48.4495C80.4822 49.5108 80.6321 50.5151 80.721 50.6811C80.8099 50.8472 81.2938 51.371 81.7965 51.8451C82.2992 52.3194 83.173 53.0202 83.7383 53.4027C84.3035 53.7851 85.2285 54.3291 85.7938 54.6115C86.359 54.8939 87.4381 55.3266 88.1918 55.573C88.9455 55.8194 90.2466 56.1386 91.0834 56.2823C91.9202 56.4261 93.5658 56.5438 94.7405 56.5438H96.8763L97.4587 55.9612C97.891 55.5288 98.0411 55.2296 98.0411 54.8C98.0411 54.4816 97.9154 54.0416 97.7617 53.8223C97.6081 53.6028 97.2273 53.3167 96.9154 53.1863C96.5613 53.0384 96.0711 52.9873 95.6103 53.0504C95.2043 53.1059 94.0628 53.0685 93.0736 52.9673C92.0844 52.8662 90.8499 52.6714 90.3304 52.5344C89.8109 52.3975 88.963 52.1254 88.4462 51.9298C87.9294 51.7341 87.0442 51.3088 86.4789 50.9846L85.4512 50.3952L87.7636 49.2949C89.0355 48.6897 90.7263 47.9463 91.5211 47.6426C92.3158 47.3392 93.6262 46.9447 94.433 46.7662C95.2398 46.5878 96.2538 46.4401 96.6862 46.438C97.1187 46.436 98.0437 46.582 98.7417 46.7624C99.4399 46.9428 101.437 47.6827 103.18 48.4067C104.992 49.1591 106.597 49.723 106.928 49.7233C107.348 49.724 107.653 49.578 108.038 49.1926C108.47 48.7607 108.566 48.5293 108.551 47.9586C108.538 47.4601 108.415 47.1418 108.126 46.8625C107.902 46.6459 106.37 45.9142 104.721 45.2367C103.073 44.559 101.174 43.8199 100.501 43.5937C99.8278 43.3677 98.7153 43.1029 98.0282 43.0054C97.1571 42.8819 96.3746 42.8836 95.4424 43.0113C94.7074 43.112 93.5075 43.3497 92.7761 43.5395C92.0447 43.7292 90.5599 44.2369 89.4765 44.6675C88.3931 45.0981 86.6848 45.8618 85.6805 46.3645L83.8544 47.2787L83.7395 46.3853C83.6761 45.8939 83.5224 45.0871 83.3979 44.5923C83.1864 43.7525 83.192 43.6927 83.4842 43.6927C83.6564 43.6927 84.4392 43.366 85.2237 42.9667C86.326 42.4057 87.0046 41.8896 88.2095 40.6963C89.2042 39.7113 89.9901 38.7486 90.3799 38.0382C90.716 37.4257 91.1216 36.4694 91.2812 35.9132C91.4697 35.2564 91.5348 34.6344 91.4669 34.1387C91.4094 33.7189 91.1535 32.9915 90.8981 32.5222C90.6427 32.0529 89.8081 31.0765 89.0435 30.3524C88.2787 29.6283 86.9263 28.5414 86.0382 27.9371C85.15 27.3327 83.9609 26.4933 83.3957 26.0714C82.8304 25.6497 82.0785 25.0308 81.7246 24.696C81.3518 24.3436 80.9373 23.7031 80.7396 23.1743C80.5517 22.6722 80.3981 21.9121 80.3981 21.4855C80.3981 21.0586 80.4801 20.5563 80.5803 20.369C80.6805 20.1815 81.0081 19.8755 81.3083 19.6887C81.6084 19.5019 82.0082 19.3823 82.1966 19.4231C82.3851 19.4637 84.7746 20.554 87.5067 21.846ZM64.7391 37.0257C64.6949 37.2701 64.6049 38.2531 64.5389 39.2104C64.473 40.1679 64.3916 40.9511 64.3582 40.9511C64.3248 40.9511 63.8926 40.6643 63.3978 40.3136C62.9031 39.963 62.4411 39.5966 62.3714 39.4996C62.3015 39.4027 62.1204 39.0031 61.969 38.6116C61.7147 37.9548 61.7155 37.824 61.9795 36.9157C62.154 36.3148 62.47 35.7267 62.7907 35.406L63.3159 34.8806L64.0677 35.7312C64.6504 36.3904 64.8013 36.6817 64.7391 37.0257ZM70.821 37.0101L70.9219 38.2952L70.1083 39.2377C69.6609 39.756 69.0105 40.6042 68.6629 41.1225L68.031 42.0649L68.1186 39.666C68.1667 38.3466 68.2868 37.0586 68.3854 36.8037C68.4839 36.5489 68.8568 36.1842 69.2141 35.9934C69.5714 35.8026 70.0564 35.6642 70.2919 35.6858C70.697 35.723 70.7256 35.7946 70.821 37.0101ZM76.4289 39.219C76.4644 39.4609 76.001 40.4162 75.1694 41.8151C73.9262 43.9067 73.8371 44.1252 73.5507 45.7883C73.384 46.7561 73.1562 47.8815 73.0444 48.289C72.8654 48.9418 72.8083 49.0028 72.5648 48.803C72.4127 48.6783 71.8818 47.9473 71.3851 47.1786C70.5206 45.8409 70.4896 45.7528 70.6605 45.1224C70.7587 44.7602 71.0821 44.0011 71.3791 43.4357C71.6917 42.8406 72.4962 41.8204 73.2895 41.0133C74.0432 40.2466 74.9625 39.4157 75.3323 39.1671C75.7021 38.9186 76.0875 38.7423 76.1888 38.7757C76.29 38.8089 76.3979 39.0084 76.4289 39.219Z" fill="#EFD09E"/>
<path d="M153.894 15.8263C156.174 15.8263 158.026 16.1412 159.451 16.7709C160.933 17.3434 162.158 18.1449 163.127 19.1754C164.152 20.2631 164.865 21.6657 165.264 23.3831C165.72 25.1006 165.948 27.4191 165.948 30.3388V53.3526C165.948 55.7571 166.404 57.3887 167.315 58.2474C168.284 59.1061 169.88 59.5355 172.103 59.5355V62.541H151.415V59.5355C153.353 59.5355 154.721 59.1061 155.519 58.2474C156.316 57.3887 156.715 55.7571 156.715 53.3526V27.9344C156.715 26.2742 156.573 24.7857 156.288 23.469C156.003 22.095 155.405 21.0073 154.493 20.2058C153.581 19.3471 152.213 18.9177 150.389 18.9177C148.281 18.9177 146.4 19.5188 144.747 20.7211C143.152 21.9233 141.869 23.5835 140.901 25.7017C139.989 27.7626 139.533 30.0812 139.533 32.6574V53.3526C139.533 55.7571 139.932 57.3887 140.73 58.2474C141.584 59.1061 142.952 59.5355 144.833 59.5355V62.541H124.146V59.5355C126.368 59.5355 127.935 59.1061 128.847 58.2474C129.816 57.3887 130.301 55.7571 130.301 53.3526V26.3887C130.301 23.8125 129.873 21.9233 129.018 20.7211C128.163 19.4616 126.539 18.8319 124.146 18.8319V17.0285C125.969 17.2003 127.736 17.2862 129.446 17.2862C131.383 17.2862 133.178 17.2003 134.831 17.0285C136.541 16.7995 138.108 16.4847 139.533 16.0839V25.4441C141.015 21.8947 143.038 19.4043 145.602 17.9731C148.224 16.5419 150.988 15.8263 153.894 15.8263Z" fill="#EFD09E"/>
<path d="M196.854 15.8263C201.869 15.8263 205.801 17.3434 208.651 20.3776C211.5 23.4117 212.925 28.2206 212.925 34.8042H187.079L186.911 33.1726H203.864C203.921 30.3674 203.693 27.7912 203.18 25.4441C202.667 23.0396 201.869 21.1218 200.786 19.6906C199.703 18.2594 198.279 17.5438 196.512 17.5438C194.061 17.5438 191.924 18.8605 190.1 21.4939C188.422 23.9416 187.355 27.8825 186.911 33.1726C186.931 32.887 186.888 33.4503 186.911 33.1726L187.079 34.8042C187.09 34.6392 187.067 34.9625 187.079 34.8042C187.033 35.4746 186.983 36.2559 186.938 37.0368C186.881 37.9528 186.852 38.8688 186.852 39.7848C186.852 43.7349 187.45 47.0553 188.647 49.746C189.844 52.4367 191.411 54.469 193.349 55.8429C195.287 57.1597 197.253 57.818 199.247 57.818C200.786 57.818 202.268 57.589 203.693 57.131C205.174 56.6158 206.571 55.7857 207.881 54.6407C209.192 53.4385 210.36 51.8069 211.386 49.746L213.096 50.433C212.412 52.3794 211.358 54.2972 209.933 56.1864C208.508 58.0756 206.684 59.6213 204.462 60.8236C202.239 61.9685 199.646 62.541 196.683 62.541C192.693 62.541 189.217 61.6537 186.254 59.879C183.29 58.047 181.011 55.4422 179.415 52.0646C177.819 48.6869 177.021 44.6795 177.021 40.0424C177.021 34.9473 177.848 30.5964 179.5 26.9898C181.153 23.3831 183.461 20.6352 186.425 18.746C189.445 16.7996 192.921 15.8263 196.854 15.8263Z" fill="#EFD09E"/>
<path d="M234.713 15.8263C236.993 15.8263 238.959 16.1984 240.612 16.9427C242.322 17.6297 243.547 18.2594 244.288 18.8319C246.168 20.3203 247.337 19.3471 247.793 15.9122H249.673C249.559 17.5152 249.474 19.4616 249.417 21.7515C249.36 23.9842 249.331 26.9611 249.331 30.6823H247.451C247.109 28.5641 246.51 26.5031 245.656 24.4995C244.858 22.4958 243.661 20.8356 242.065 19.5188C240.526 18.2021 238.503 17.5438 235.996 17.5438C234.115 17.5438 232.548 18.0876 231.294 19.1754C230.04 20.2058 229.413 21.7515 229.413 23.8125C229.413 25.5299 229.926 27.0184 230.952 28.2779C231.978 29.5373 233.289 30.7109 234.884 31.7986C236.537 32.8863 238.304 34.0599 240.185 35.3194C242.293 36.7506 244.174 38.1818 245.827 39.613C247.536 40.987 248.875 42.5327 249.844 44.2501C250.87 45.9676 251.383 47.9713 251.383 50.2612C251.383 52.8947 250.671 55.1273 249.246 56.9593C247.878 58.7912 246.054 60.1938 243.775 61.167C241.495 62.083 238.988 62.541 236.252 62.541C234.884 62.541 233.602 62.3979 232.405 62.1117C231.209 61.8827 230.097 61.5678 229.072 61.167C228.445 60.8236 227.818 60.4801 227.191 60.1366C226.621 59.7358 226.051 59.3637 225.481 59.0202C224.911 58.6195 224.398 58.6767 223.942 59.192C223.487 59.7072 223.145 60.6232 222.917 61.9399H221.036C221.15 60.108 221.235 57.8753 221.292 55.2418C221.349 52.6084 221.378 49.1163 221.378 44.7654H223.259C223.657 47.914 224.256 50.6906 225.054 53.095C225.852 55.4995 227.02 57.3887 228.559 58.7626C230.154 60.0793 232.32 60.7377 235.055 60.7377C236.138 60.7377 237.221 60.5087 238.304 60.0507C239.387 59.5355 240.27 58.734 240.954 57.6463C241.695 56.5586 242.065 55.0987 242.065 53.2668C242.065 50.7478 241.182 48.6869 239.415 47.0839C237.705 45.4237 235.483 43.6777 232.747 41.8457C230.81 40.4718 228.958 39.1264 227.191 37.8097C225.481 36.4357 224.085 34.9187 223.002 33.2585C221.919 31.541 221.378 29.5087 221.378 27.1615C221.378 24.5853 221.976 22.4671 223.173 20.8069C224.427 19.1467 226.08 17.9159 228.131 17.1144C230.183 16.2557 232.377 15.8263 234.713 15.8263Z" fill="#EFD09E"/>
<path d="M262.877 15.8107V16.0083C262.661 16.0214 262.519 16.0577 262.452 16.117C262.391 16.1762 262.361 16.3244 262.361 16.5616V19.091C262.361 19.3281 262.391 19.4763 262.452 19.5356C262.512 19.5949 262.654 19.6311 262.877 19.6443V19.8419C262.769 19.8288 262.634 19.8222 262.472 19.8222C262.31 19.8156 262.152 19.8123 261.997 19.8123C261.835 19.8123 261.687 19.8156 261.552 19.8222C261.417 19.8222 261.302 19.8288 261.208 19.8419V19.6443C261.383 19.6311 261.494 19.5949 261.542 19.5356C261.596 19.4763 261.623 19.3281 261.623 19.091V16.4628L260.298 19.8913H260.136L258.7 16.443V19.091C258.7 19.3281 258.727 19.4763 258.781 19.5356C258.835 19.5949 258.946 19.6311 259.115 19.6443V19.8419C258.973 19.8222 258.798 19.8123 258.589 19.8123C258.474 19.8123 258.356 19.8156 258.235 19.8222C258.12 19.8222 258.026 19.8288 257.952 19.8419V19.6443C258.174 19.6311 258.316 19.5949 258.376 19.5356C258.437 19.4763 258.467 19.3281 258.467 19.091V16.5616C258.467 16.3244 258.437 16.1762 258.376 16.117C258.316 16.0577 258.174 16.0214 257.952 16.0083V15.8107C258.026 15.8172 258.12 15.8238 258.235 15.8304C258.356 15.837 258.474 15.8403 258.589 15.8403C258.737 15.8403 258.862 15.837 258.963 15.8304C259.064 15.8238 259.169 15.8172 259.276 15.8107L260.5 18.7452L261.623 15.8403C261.697 15.8403 261.771 15.8403 261.845 15.8403C261.926 15.8403 262.01 15.8403 262.098 15.8403C262.233 15.8403 262.371 15.837 262.512 15.8304C262.661 15.8238 262.782 15.8172 262.877 15.8107ZM257.375 15.8107C257.348 15.9819 257.328 16.1499 257.315 16.3146C257.308 16.4727 257.304 16.5945 257.304 16.6801C257.304 16.8909 257.315 17.0622 257.335 17.1939H257.102C257.075 16.7592 257.008 16.4595 256.9 16.2948C256.799 16.1235 256.651 16.0379 256.455 16.0379H255.909V18.9922C255.909 19.1766 255.926 19.315 255.959 19.4072C255.993 19.4928 256.061 19.5521 256.162 19.585C256.27 19.6114 256.425 19.6311 256.627 19.6443V19.8419C256.492 19.8288 256.327 19.8222 256.131 19.8222C255.936 19.8156 255.74 19.8123 255.545 19.8123C255.322 19.8123 255.113 19.8156 254.918 19.8222C254.729 19.8222 254.574 19.8288 254.453 19.8419V19.6443C254.655 19.6311 254.807 19.6114 254.908 19.585C255.016 19.5521 255.086 19.4928 255.12 19.4072C255.154 19.315 255.171 19.1766 255.171 18.9922V16.0379H254.625C254.436 16.0379 254.288 16.1235 254.18 16.2948C254.079 16.4595 254.011 16.7592 253.977 17.1939H253.745C253.758 17.1281 253.765 17.0523 253.765 16.9667C253.772 16.8745 253.775 16.7789 253.775 16.6801C253.775 16.5945 253.768 16.4727 253.755 16.3146C253.748 16.1499 253.731 15.9819 253.704 15.8107C253.974 15.8238 254.281 15.8337 254.625 15.8403C254.975 15.8403 255.282 15.8403 255.545 15.8403C255.808 15.8403 256.111 15.8403 256.455 15.8403C256.799 15.8337 257.106 15.8238 257.375 15.8107Z" fill="#EFD09E"/>
</svg>
