<svg width="166" height="41" viewBox="0 0 166 41" fill="none" xmlns="http://www.w3.org/2000/svg">
<path d="M0 0.5C0.824005 0.536934 1.88088 0.573868 3.17063 0.610802C4.4962 0.647736 5.80386 0.666203 7.09361 0.666203C8.81328 0.666203 10.4434 0.647736 11.9839 0.610802C13.5603 0.573868 14.6709 0.555401 15.3158 0.555401C18.361 0.555401 20.8867 0.961679 22.893 1.77423C24.9351 2.58679 26.4398 3.73176 27.4071 5.20914C28.4103 6.64958 28.9118 8.31163 28.9118 10.1953C28.9118 11.3403 28.679 12.5591 28.2132 13.8518C27.7833 15.1076 27.013 16.2895 25.9024 17.3975C24.7918 18.4686 23.2871 19.355 21.3883 20.0568C19.4895 20.7585 17.0712 21.1094 14.1335 21.1094H10.4255V20.0014H13.5961C15.9965 20.0014 17.8236 19.5951 19.0775 18.7825C20.3673 17.9331 21.2271 16.825 21.657 15.4584C22.1228 14.0549 22.3556 12.5037 22.3556 10.8047C22.3556 7.88689 21.7466 5.63389 20.5285 4.0457C19.3104 2.42059 17.1966 1.60803 14.1872 1.60803C12.6467 1.60803 11.6256 1.92198 11.1241 2.54986C10.6583 3.17775 10.4255 4.45198 10.4255 6.37257V33.8518C10.4255 35.1814 10.5329 36.1787 10.7479 36.8435C10.9629 37.5083 11.3749 37.9515 11.9839 38.1731C12.593 38.3947 13.4886 38.5425 14.6709 38.6163V40.5H0V38.6163C1.2181 38.5425 2.13167 38.3947 2.74071 38.1731C3.34976 37.9515 3.74385 37.5083 3.92298 36.8435C4.13794 36.1787 4.24542 35.1814 4.24542 33.8518V6.37257C4.24542 5.006 4.13794 4.00877 3.92298 3.38089C3.74385 2.71607 3.33185 2.27285 2.68697 2.05125C2.07793 1.7927 1.18227 1.64497 0 1.60803V0.5ZM10.4255 21.1094C10.4255 21.1094 12.2716 21.1147 13.4545 21.1094C14.0538 21.1068 14.9889 21.0991 14.9889 21.0991C14.9889 21.0991 17.5151 20.9375 18.3636 20.8142C21.0506 21.1836 23.0184 22.0512 24.2365 23.1593C25.4904 24.2673 26.3503 25.9663 26.816 28.2562L28.1595 33.9072C28.4819 35.4954 28.8223 36.6219 29.1805 37.2867C29.5746 37.9515 30.1478 38.2839 30.9002 38.2839C31.4734 38.247 31.9392 38.0808 32.2974 37.7853C32.6915 37.4529 33.1035 37.0097 33.5334 36.4557L34.2858 37.0651C33.4618 38.2101 32.602 39.078 31.7063 39.669C30.8106 40.223 29.6105 40.5 28.1057 40.5C26.5652 40.5 25.2396 40.0937 24.129 39.2812C23.0542 38.4317 22.284 36.8435 21.8182 34.5166L20.7434 28.9764C20.421 27.3883 20.0627 26.0217 19.6687 24.8767C19.2746 23.6948 18.7193 22.7715 18.0027 22.1066C17.322 21.4418 16.3145 21.0991 14.9889 21.0991L10.4255 21.1094Z" fill="#272727"/>
<path fill-rule="evenodd" clip-rule="evenodd" d="M42.1139 6.75033C42.376 6.74277 42.6257 6.86489 42.7857 7.07882L45.5503 10.7753C45.7263 11.0106 45.7692 11.3239 45.6632 11.6002L43.3594 17.6069C43.2448 17.9057 42.9754 18.1116 42.6645 18.1378C42.3536 18.1641 42.0552 18.0062 41.8949 17.7305L38.6696 12.1859C38.5051 11.9031 38.5155 11.5475 38.6964 11.2755L41.4609 7.11703C41.6091 6.89421 41.8518 6.75789 42.1139 6.75033ZM42.1758 9.02844L40.3448 11.7826L42.4462 15.3951L43.9687 11.4257L42.1758 9.02844Z" fill="#272727"/>
<path fill-rule="evenodd" clip-rule="evenodd" d="M50.5818 10.5651C50.3966 10.6264 50.009 10.859 49.7204 11.0819C49.4318 11.3049 49.0415 11.7228 48.8532 12.0105C48.6648 12.2983 48.4536 12.8159 48.3838 13.1608C48.3109 13.5216 48.287 14.0599 48.3277 14.4289C48.3666 14.7816 48.487 15.3346 48.5953 15.6578C48.7036 15.9811 48.8906 16.4434 49.0107 16.6851C49.1309 16.9269 49.464 17.349 49.7508 17.6231C50.0378 17.8973 50.6602 18.4223 51.134 18.7896C51.6078 19.1571 52.3831 19.7244 52.8569 20.0504C53.3307 20.3764 54.0696 20.9962 54.499 21.4275C55.1038 22.0352 55.2797 22.2824 55.2797 22.5244C55.2797 22.6961 55.127 23.1308 54.9405 23.4902C54.7373 23.8814 54.2989 24.4364 53.8475 24.8736C53.4202 25.2874 52.8347 25.7253 52.4957 25.8846C52.1669 26.0392 51.6681 26.1883 51.3872 26.216C51.1063 26.2437 50.7594 26.2362 50.6163 26.1994C50.3838 26.1395 50.3504 26.0584 50.3017 25.4364C50.2716 25.0509 50.1466 24.5378 50.0213 24.2858C49.8971 24.0358 49.592 23.6524 49.3435 23.4339C49.0948 23.2155 48.7275 23.0052 48.5271 22.9667C48.3268 22.9281 47.9107 22.9204 47.6025 22.9497C47.2943 22.9789 46.9734 23.0223 46.8894 23.0459C46.7885 23.0742 46.7034 22.9512 46.6386 22.684C46.5848 22.4613 46.3747 22.0803 46.1719 21.837C45.9692 21.5938 45.5942 21.2909 45.3388 21.164C45.0022 20.9967 44.665 20.9331 44.1137 20.9331C43.4667 20.9331 43.247 20.988 42.6426 21.3003L41.9321 21.6673L41.5844 21.2991C41.3932 21.0965 41.0376 20.8318 40.7942 20.7108C40.5176 20.5734 40.1306 20.4909 39.7618 20.4909C39.2878 20.4909 39.0571 20.5615 38.5881 20.8502C38.2671 21.0478 37.8206 21.4582 37.5961 21.7622C37.3715 22.0662 37.0816 22.5886 36.952 22.923C36.7731 23.3842 36.7147 23.7712 36.7104 24.5259C36.7055 25.396 36.7436 25.6073 37.0148 26.21C37.2091 26.6419 37.514 27.0753 37.8317 27.3707C38.1105 27.6301 39.0613 28.3633 39.9445 29C40.8277 29.6367 41.7342 30.3059 41.9587 30.4871C42.1833 30.6681 42.5905 31.167 42.8635 31.5955C43.1365 32.0241 43.505 32.5652 43.6824 32.7981C43.8597 33.0309 44.6397 33.7951 45.4158 34.4963C46.1919 35.1974 47.4172 36.2276 48.1389 36.7855C48.8605 37.3433 49.9612 38.1118 50.5849 38.4932C51.2085 38.8746 52.1588 39.3826 52.6966 39.622C53.2344 39.8615 54.0447 40.157 54.4973 40.2787C55.2739 40.4875 55.6645 40.5 61.4231 40.5H67.5258L68.3212 40.1633C68.7588 39.9781 69.4317 39.6494 69.8167 39.433C70.2017 39.2166 70.8222 38.8165 71.1957 38.5438C71.5691 38.271 72.2091 37.7047 72.6178 37.2851C73.0265 36.8655 73.5501 36.2358 73.7813 35.8857C74.0126 35.5354 74.3366 34.9754 74.5015 34.641C74.6662 34.3066 74.9122 33.6978 75.0479 33.2882C75.1837 32.8785 75.3765 32.0414 75.4764 31.4278C75.6135 30.5861 75.6441 29.9276 75.6009 28.7456C75.5579 27.5688 75.4849 26.9865 75.3075 26.4052C75.1775 25.9796 74.9028 25.3001 74.697 24.895C74.4911 24.4901 73.9994 23.7456 73.6042 23.2406C73.209 22.7356 72.4253 21.9068 71.8627 21.3988C71.3 20.8907 70.3793 20.113 69.8167 19.6707C69.2541 19.2284 68.2123 18.4693 67.5016 17.9839C66.7909 17.4984 65.846 16.8995 65.4018 16.653C64.9576 16.4063 63.625 15.7698 62.4405 15.2384C61.256 14.7069 58.9059 13.6118 57.218 12.8047C55.5301 11.9977 53.7398 11.1335 53.2395 10.8843C52.4422 10.4871 52.2427 10.4326 51.6243 10.4424C51.2362 10.4486 50.767 10.5039 50.5818 10.5651ZM55.0105 14.2451C56.728 15.0787 59.4901 16.3786 61.1484 17.1337C62.8067 17.889 64.6047 18.7772 65.1442 19.1077C65.6836 19.4381 66.6654 20.1057 67.3261 20.5912C67.9868 21.0767 68.9023 21.786 69.3605 22.1672C69.8187 22.5485 70.5003 23.1597 70.8751 23.5256C71.2499 23.8915 71.7892 24.515 72.0734 24.9112C72.3576 25.3073 72.6869 25.8304 72.805 26.0736C72.9231 26.3168 73.0962 26.7894 73.1897 27.1238C73.2832 27.4582 73.3921 28.0602 73.432 28.4615C73.4717 28.8629 73.4471 29.6969 73.3771 30.315C73.3071 30.933 73.1785 31.7239 73.0913 32.0725C73.0041 32.4212 72.7663 33.0686 72.5629 33.5113C72.3595 33.9541 71.9679 34.6167 71.6926 34.984C71.4173 35.3513 70.8871 35.9094 70.5142 36.2243C70.1413 36.5391 69.5703 36.9613 69.2455 37.1625C68.9205 37.3637 68.2741 37.6988 67.8089 37.9073L66.9631 38.2864L61.4714 38.2857C57.0991 38.2853 55.8302 38.2527 55.2465 38.1258C54.8433 38.038 54.0883 37.7737 53.5689 37.5384C53.0495 37.3031 52.2408 36.8759 51.7716 36.5893C51.3024 36.3025 50.4956 35.7575 49.9784 35.3781C49.4613 34.9987 48.7063 34.4082 48.3008 34.0657L47.5635 33.443L47.8677 32.4848C48.035 31.9577 48.2501 31.088 48.3457 30.552L48.5193 29.5774L49.2594 29.2273C49.6664 29.0346 50.0456 28.9062 50.1019 28.942C50.1582 28.9777 50.2544 29.2673 50.3157 29.5853C50.3771 29.9035 50.4759 30.7241 50.5352 31.4087C50.5946 32.0934 50.6888 32.7413 50.7447 32.8485C50.8006 32.9556 51.1048 33.2935 51.4209 33.5994C51.7369 33.9054 52.2862 34.3576 52.6415 34.6043C52.9969 34.851 53.5784 35.202 53.9337 35.3842C54.2891 35.5664 54.9674 35.8455 55.4412 36.0045C55.915 36.1634 56.733 36.3694 57.259 36.4621C57.785 36.5549 58.8195 36.6308 59.558 36.6308H60.9007L61.2668 36.255C61.5386 35.976 61.6329 35.7829 61.6329 35.5058C61.6329 35.3004 61.5539 35.0165 61.4573 34.875C61.3607 34.7334 61.1213 34.5488 60.9252 34.4647C60.7027 34.3693 60.3945 34.3363 60.1048 34.377C59.8496 34.4128 59.132 34.3887 58.5102 34.3234C57.8883 34.2582 57.1123 34.1325 56.7857 34.0442C56.4591 33.9558 55.926 33.7803 55.6012 33.654C55.2763 33.5278 54.7198 33.2534 54.3644 33.0443L53.7184 32.664L55.1721 31.9541C55.9716 31.5637 57.0345 31.084 57.5341 30.8881C58.0338 30.6924 58.8576 30.4379 59.3647 30.3227C59.8719 30.2076 60.5094 30.1123 60.7812 30.111C61.0531 30.1097 61.6345 30.2039 62.0733 30.3203C62.5123 30.4367 63.7677 30.914 64.8634 31.3811C66.0023 31.8665 67.0114 32.2303 67.2196 32.2305C67.4835 32.231 67.6754 32.1368 67.9176 31.8881C68.189 31.6095 68.2495 31.4602 68.2401 31.092C68.2319 30.7704 68.1542 30.565 67.9728 30.3848C67.832 30.2451 66.8689 29.773 65.8325 29.3359C64.7961 28.8987 63.6021 28.4218 63.1791 28.2759C62.7562 28.1301 62.0568 27.9593 61.6248 27.8964C61.0772 27.8167 60.5853 27.8178 59.9993 27.9002C59.5372 27.9652 58.7829 28.1185 58.3231 28.241C57.8633 28.3633 56.93 28.6909 56.2489 28.9687C55.5678 29.2465 54.4939 29.7392 53.8625 30.0636L52.7146 30.6533L52.6423 30.0769C52.6025 29.7599 52.5059 29.2394 52.4276 28.9202C52.2946 28.3784 52.2981 28.3398 52.4819 28.3398C52.5901 28.3398 53.0822 28.129 53.5753 27.8714C54.2683 27.5095 54.6949 27.1765 55.4523 26.4067C56.0777 25.7711 56.5717 25.1501 56.8168 24.6917C57.028 24.2965 57.283 23.6796 57.3834 23.3207C57.5018 22.897 57.5428 22.4957 57.5001 22.1759C57.4639 21.9051 57.3031 21.4358 57.1425 21.133C56.982 20.8302 56.4573 20.2003 55.9766 19.7332C55.4958 19.266 54.6457 18.5648 54.0874 18.1749C53.529 17.785 52.7815 17.2434 52.4262 16.9712C52.0708 16.6992 51.5981 16.2999 51.3756 16.0839C51.1413 15.8565 50.8807 15.4433 50.7565 15.1021C50.6383 14.7782 50.5418 14.2878 50.5418 14.0126C50.5418 13.7372 50.5933 13.4131 50.6563 13.2922C50.7193 13.1713 50.9252 12.9739 51.114 12.8534C51.3026 12.7329 51.554 12.6557 51.6724 12.682C51.7909 12.7082 53.293 13.4116 55.0105 14.2451ZM40.6979 24.0385C40.6701 24.1962 40.6134 24.8304 40.572 25.448C40.5305 26.0657 40.4794 26.571 40.4584 26.571C40.4374 26.571 40.1657 26.386 39.8546 26.1597C39.5436 25.9335 39.2532 25.6972 39.2094 25.6346C39.1655 25.572 39.0516 25.3142 38.9564 25.0616C38.7965 24.6379 38.7971 24.5536 38.963 23.9676C39.0727 23.5799 39.2714 23.2005 39.473 22.9935L39.8031 22.6546L40.2757 23.2033C40.6421 23.6286 40.7369 23.8165 40.6979 24.0385ZM44.5212 24.0285L44.5846 24.8576L44.0731 25.4656C43.7919 25.8 43.383 26.3472 43.1645 26.6816L42.7673 27.2896L42.8223 25.7419C42.8526 24.8907 42.928 24.0597 42.9901 23.8953C43.052 23.7309 43.2864 23.4956 43.511 23.3725C43.7357 23.2494 44.0405 23.1601 44.1886 23.174C44.4432 23.198 44.4612 23.2442 44.5212 24.0285ZM48.0466 25.4535C48.0689 25.6096 47.7776 26.2259 47.2548 27.1284C46.4732 28.4779 46.4172 28.6188 46.2372 29.6918C46.1324 30.3162 45.9892 31.0422 45.9189 31.3051C45.8064 31.7263 45.7705 31.7657 45.6174 31.6368C45.5218 31.5563 45.1881 31.0847 44.8758 30.5888C44.3323 29.7257 44.3128 29.6689 44.4203 29.2622C44.482 29.0285 44.6853 28.5388 44.872 28.174C45.0685 27.7901 45.5743 27.1319 46.073 26.6112C46.5468 26.1165 47.1247 25.5804 47.3572 25.42C47.5897 25.2597 47.832 25.146 47.8956 25.1675C47.9592 25.189 48.0271 25.3177 48.0466 25.4535Z" fill="#272727"/>
<path d="M96.7447 10.3615C98.1778 10.3615 99.3421 10.5646 100.238 10.9709C101.169 11.3403 101.94 11.8573 102.549 12.5222C103.193 13.2239 103.641 14.1288 103.892 15.2368C104.179 16.3449 104.322 17.8407 104.322 19.7244V34.572C104.322 36.1233 104.609 37.1759 105.182 37.7299C105.791 38.2839 106.794 38.5609 108.191 38.5609V40.5H95.1863V38.5609C96.4044 38.5609 97.2642 38.2839 97.7657 37.7299C98.2673 37.1759 98.5181 36.1233 98.5181 34.572V18.1731C98.5181 17.102 98.4285 16.1417 98.2494 15.2922C98.0703 14.4058 97.6941 13.7041 97.1209 13.187C96.5477 12.633 95.6878 12.356 94.5414 12.356C93.2158 12.356 92.0336 12.7438 90.9946 13.5194C89.9915 14.295 89.1854 15.3661 88.5763 16.7327C88.0031 18.0623 87.7165 19.5582 87.7165 21.2202V34.572C87.7165 36.1233 87.9673 37.1759 88.4688 37.7299C89.0062 38.2839 89.8661 38.5609 91.0483 38.5609V40.5H78.0434V38.5609C79.4406 38.5609 80.4258 38.2839 80.999 37.7299C81.6081 37.1759 81.9126 36.1233 81.9126 34.572V17.1759C81.9126 15.5138 81.6439 14.295 81.1065 13.5194C80.5691 12.7068 79.5481 12.3005 78.0434 12.3005V11.1371C79.1898 11.2479 80.3004 11.3033 81.3752 11.3033C82.5933 11.3033 83.7218 11.2479 84.7608 11.1371C85.8356 10.9894 86.8208 10.7862 87.7165 10.5277V16.5665C88.648 14.2765 89.9198 12.6699 91.532 11.7465C93.18 10.8232 94.9176 10.3615 96.7447 10.3615Z" fill="#272727"/>
<path d="M123.751 10.3615C126.904 10.3615 129.376 11.3403 131.167 13.2978C132.958 15.2553 133.854 18.3578 133.854 22.6053H117.606L117.5 21.5526H128.158C128.193 19.7428 128.05 18.0808 127.728 16.5665C127.405 15.0152 126.904 13.7779 126.223 12.8546C125.542 11.9312 124.647 11.4695 123.536 11.4695C121.995 11.4695 120.652 12.319 119.505 14.018C118.45 15.5971 117.779 18.1397 117.5 21.5526C117.513 21.3684 117.486 21.7318 117.5 21.5526L117.606 22.6053C117.613 22.4988 117.599 22.7074 117.606 22.6053C117.577 23.0378 117.546 23.5418 117.517 24.0457C117.481 24.6367 117.463 25.2276 117.463 25.8186C117.463 28.367 117.84 30.5092 118.592 32.2451C119.344 33.9811 120.329 35.2922 121.548 36.1787C122.766 37.0282 124.002 37.4529 125.256 37.4529C126.223 37.4529 127.154 37.3052 128.05 37.0097C128.982 36.6773 129.859 36.1417 130.683 35.403C131.507 34.6274 132.242 33.5748 132.887 32.2451L133.961 32.6884C133.531 33.9441 132.869 35.1814 131.973 36.4003C131.077 37.6191 129.931 38.6163 128.534 39.392C127.136 40.1307 125.506 40.5 123.643 40.5C121.136 40.5 118.95 39.9275 117.087 38.7825C115.224 37.6006 113.791 35.9201 112.788 33.741C111.785 31.5619 111.283 28.9764 111.283 25.9848C111.283 22.6976 111.803 19.8906 112.842 17.5637C113.881 15.2368 115.332 13.464 117.195 12.2451C119.093 10.9894 121.279 10.3615 123.751 10.3615Z" fill="#272727"/>
<path d="M147.551 10.3615C148.984 10.3615 150.22 10.6016 151.259 11.0817C152.334 11.5249 153.104 11.9312 153.57 12.3005C154.752 13.2608 155.487 12.633 155.773 10.4169H156.956C156.884 11.4511 156.83 12.7068 156.794 14.1842C156.759 15.6246 156.741 17.5452 156.741 19.946H155.558C155.343 18.5794 154.967 17.2498 154.43 15.9571C153.928 14.6644 153.176 13.5933 152.173 12.7438C151.205 11.8943 149.934 11.4695 148.357 11.4695C147.175 11.4695 146.19 11.8204 145.402 12.5222C144.613 13.187 144.219 14.1842 144.219 15.5138C144.219 16.6219 144.542 17.5822 145.187 18.3947C145.832 19.2073 146.656 19.9644 147.659 20.6662C148.698 21.368 149.808 22.1251 150.991 22.9377C152.316 23.861 153.498 24.7844 154.537 25.7078C155.612 26.5942 156.454 27.5914 157.063 28.6994C157.708 29.8075 158.03 31.1002 158.03 32.5776C158.03 34.2765 157.583 35.717 156.687 36.8989C155.827 38.0808 154.681 38.9857 153.248 39.6136C151.815 40.2045 150.238 40.5 148.518 40.5C147.659 40.5 146.853 40.4077 146.1 40.223C145.348 40.0753 144.649 39.8721 144.004 39.6136C143.61 39.392 143.216 39.1704 142.822 38.9487C142.464 38.6902 142.106 38.4501 141.747 38.2285C141.389 37.97 141.067 38.0069 140.78 38.3393C140.493 38.6717 140.278 39.2627 140.135 40.1122H138.953C139.025 38.9303 139.078 37.4898 139.114 35.7909C139.15 34.0919 139.168 31.8389 139.168 29.0319H140.35C140.601 31.0632 140.977 32.8546 141.479 34.4058C141.98 35.9571 142.715 37.1759 143.682 38.0623C144.685 38.9118 146.046 39.3366 147.766 39.3366C148.447 39.3366 149.128 39.1888 149.808 38.8933C150.489 38.5609 151.044 38.0439 151.474 37.3421C151.94 36.6403 152.173 35.6985 152.173 34.5166C152.173 32.8915 151.617 31.5619 150.507 30.5277C149.432 29.4566 148.035 28.3301 146.315 27.1482C145.097 26.2618 143.933 25.3938 142.822 24.5443C141.747 23.6579 140.87 22.6791 140.189 21.608C139.508 20.5 139.168 19.1888 139.168 17.6745C139.168 16.0125 139.544 14.6459 140.296 13.5748C141.085 12.5037 142.124 11.7096 143.413 11.1925C144.703 10.6385 146.082 10.3615 147.551 10.3615Z" fill="#272727"/>
<path d="M165.256 10.3514V10.4789C165.12 10.4874 165.031 10.5107 164.989 10.549C164.951 10.5872 164.931 10.6829 164.931 10.8358V12.4677C164.931 12.6207 164.951 12.7163 164.989 12.7546C165.027 12.7928 165.116 12.8162 165.256 12.8247V12.9522C165.188 12.9437 165.103 12.9395 165.001 12.9395C164.9 12.9352 164.8 12.9331 164.703 12.9331C164.601 12.9331 164.508 12.9352 164.423 12.9395C164.338 12.9395 164.266 12.9437 164.207 12.9522V12.8247C164.317 12.8162 164.387 12.7928 164.417 12.7546C164.45 12.7163 164.467 12.6207 164.467 12.4677V10.7721L163.635 12.9841H163.533L162.63 10.7594V12.4677C162.63 12.6207 162.647 12.7163 162.681 12.7546C162.715 12.7928 162.785 12.8162 162.891 12.8247V12.9522C162.802 12.9395 162.692 12.9331 162.56 12.9331C162.488 12.9331 162.414 12.9352 162.338 12.9395C162.266 12.9395 162.206 12.9437 162.16 12.9522V12.8247C162.3 12.8162 162.389 12.7928 162.427 12.7546C162.465 12.7163 162.484 12.6207 162.484 12.4677V10.8358C162.484 10.6829 162.465 10.5872 162.427 10.549C162.389 10.5107 162.3 10.4874 162.16 10.4789V10.3514C162.206 10.3556 162.266 10.3599 162.338 10.3641C162.414 10.3684 162.488 10.3705 162.56 10.3705C162.653 10.3705 162.732 10.3684 162.795 10.3641C162.859 10.3599 162.925 10.3556 162.992 10.3514L163.762 12.2446L164.467 10.3705C164.514 10.3705 164.561 10.3705 164.607 10.3705C164.658 10.3705 164.711 10.3705 164.766 10.3705C164.851 10.3705 164.938 10.3684 165.027 10.3641C165.12 10.3599 165.196 10.3556 165.256 10.3514ZM161.797 10.3514C161.78 10.4619 161.768 10.5702 161.759 10.6765C161.755 10.7785 161.753 10.8571 161.753 10.9123C161.753 11.0483 161.759 11.1588 161.772 11.2438H161.626C161.609 10.9633 161.566 10.77 161.499 10.6637C161.435 10.5532 161.342 10.498 161.219 10.498H160.876V12.404C160.876 12.523 160.886 12.6122 160.907 12.6717C160.929 12.727 160.971 12.7652 161.034 12.7865C161.102 12.8035 161.2 12.8162 161.327 12.8247V12.9522C161.242 12.9437 161.138 12.9395 161.015 12.9395C160.892 12.9352 160.77 12.9331 160.647 12.9331C160.507 12.9331 160.375 12.9352 160.253 12.9395C160.134 12.9395 160.036 12.9437 159.96 12.9522V12.8247C160.087 12.8162 160.183 12.8035 160.246 12.7865C160.314 12.7652 160.358 12.727 160.38 12.6717C160.401 12.6122 160.411 12.523 160.411 12.404V10.498H160.068C159.95 10.498 159.856 10.5532 159.788 10.6637C159.725 10.77 159.683 10.9633 159.661 11.2438H159.515C159.524 11.2013 159.528 11.1524 159.528 11.0972C159.532 11.0377 159.534 10.9761 159.534 10.9123C159.534 10.8571 159.53 10.7785 159.521 10.6765C159.517 10.5702 159.507 10.4619 159.49 10.3514C159.659 10.3599 159.852 10.3663 160.068 10.3705C160.289 10.3705 160.481 10.3705 160.647 10.3705C160.812 10.3705 161.003 10.3705 161.219 10.3705C161.435 10.3663 161.628 10.3599 161.797 10.3514Z" fill="#272727"/>
</svg>
