<svg width="580" height="580" viewBox="0 0 580 580" fill="none" xmlns="http://www.w3.org/2000/svg">
<g clip-path="url(#clip0_157_18)">
<mask id="mask0_157_18" style="mask-type:luminance" maskUnits="userSpaceOnUse" x="579" y="0" width="195" height="194">
<path d="M579.777 0H773.035V193.333H579.777V0Z" fill="white"/>
</mask>
<g mask="url(#mask0_157_18)">
<path d="M579.777 0H676.406V193.333H579.777V0Z" fill="#E5989B"/>
</g>
<mask id="mask1_157_18" style="mask-type:luminance" maskUnits="userSpaceOnUse" x="386" y="0" width="194" height="194">
<path d="M386.518 0H579.777V193.333H386.518V0Z" fill="white"/>
</mask>
<g mask="url(#mask1_157_18)">
<path d="M386.518 0H579.777V96.6667H386.518V0Z" fill="#EFD09E"/>
<path d="M386.518 96.6667H579.777V193.333H386.518V96.6667Z" fill="#B3C6D8"/>
</g>
<mask id="mask2_157_18" style="mask-type:luminance" maskUnits="userSpaceOnUse" x="193" y="0" width="194" height="194">
<path d="M193.259 0H386.518V193.333H193.259V0Z" fill="white"/>
</mask>
<g mask="url(#mask2_157_18)">
<path d="M386.518 193.333C279.784 193.333 193.259 106.775 193.259 -1.52588e-05C193.259 -106.775 279.784 -193.333 386.518 -193.333C493.252 -193.333 579.777 -106.775 579.777 -1.52588e-05C579.777 106.775 493.252 193.333 386.518 193.333Z" fill="#B3C6D8"/>
</g>
<mask id="mask3_157_18" style="mask-type:luminance" maskUnits="userSpaceOnUse" x="0" y="0" width="194" height="194">
<path d="M-6.10352e-05 0H193.259V193.333H-6.10352e-05V0Z" fill="white"/>
</mask>
<g mask="url(#mask3_157_18)">
<path d="M193.259 193.333C139.892 193.333 96.6293 150.054 96.6293 96.6667C96.6293 43.2791 139.892 0 193.259 0C246.626 0 289.888 43.2791 289.888 96.6667C289.888 150.054 246.626 193.333 193.259 193.333Z" fill="#D2D8B3"/>
<path d="M-3.05176e-05 193.333C-53.367 193.333 -96.6295 150.054 -96.6295 96.6667C-96.6295 43.2791 -53.367 0 -3.05176e-05 0C53.3669 0 96.6294 43.2791 96.6294 96.6667C96.6294 150.054 53.3669 193.333 -3.05176e-05 193.333Z" fill="#B3C6D8"/>
<path d="M96.6294 96.6666C43.2624 96.6666 -6.10352e-05 53.3875 -6.10352e-05 -1.14441e-05C-6.10352e-05 -53.3875 43.2624 -96.6667 96.6294 -96.6667C149.996 -96.6667 193.259 -53.3875 193.259 -1.14441e-05C193.259 53.3875 149.996 96.6666 96.6294 96.6666Z" fill="#E5989B"/>
<path d="M96.6294 290C43.2624 290 -6.10352e-05 246.721 -6.10352e-05 193.333C-6.10352e-05 139.946 43.2624 96.6667 96.6294 96.6667C149.996 96.6667 193.259 139.946 193.259 193.333C193.259 246.721 149.996 290 96.6294 290Z" fill="#B3C6D8"/>
</g>
<mask id="mask4_157_18" style="mask-type:luminance" maskUnits="userSpaceOnUse" x="579" y="193" width="195" height="194">
<path d="M579.777 193.333H773.035V386.667H579.777V193.333Z" fill="white"/>
</mask>
<g mask="url(#mask4_157_18)">
<path d="M579.777 193.333H676.406V386.667H579.777V193.333Z" fill="#D2D8B3"/>
</g>
<mask id="mask5_157_18" style="mask-type:luminance" maskUnits="userSpaceOnUse" x="386" y="193" width="194" height="194">
<path d="M386.518 193.333H579.777V386.667H386.518V193.333Z" fill="white"/>
</mask>
<g mask="url(#mask5_157_18)">
<path d="M483.147 193.333H579.777V386.667H483.147V193.333Z" fill="#B3C6D8"/>
<path d="M386.518 193.333H483.147V386.667H386.518V193.333Z" fill="#D2D8B3"/>
<path d="M483.147 241.667H531.462V338.333H483.147V241.667Z" fill="#E5989B"/>
<path d="M434.833 241.667H483.147V338.333H434.833V241.667Z" fill="#E5989B"/>
</g>
<mask id="mask6_157_18" style="mask-type:luminance" maskUnits="userSpaceOnUse" x="193" y="193" width="194" height="194">
<path d="M193.259 193.333H386.518V386.667H193.259V193.333Z" fill="white"/>
</mask>
<g mask="url(#mask6_157_18)">
<path d="M289.888 386.667C236.521 386.667 193.259 343.387 193.259 290C193.259 236.612 236.521 193.333 289.888 193.333C343.255 193.333 386.518 236.612 386.518 290C386.518 343.387 343.255 386.667 289.888 386.667Z" fill="#E5989B"/>
<path d="M289.888 338.333C263.205 338.333 241.574 316.694 241.574 290C241.574 263.306 263.205 241.667 289.888 241.667C316.572 241.667 338.203 263.306 338.203 290C338.203 316.694 316.572 338.333 289.888 338.333Z" fill="#EFD09E"/>
</g>
<mask id="mask7_157_18" style="mask-type:luminance" maskUnits="userSpaceOnUse" x="0" y="193" width="194" height="194">
<path d="M-6.10352e-05 193.333H193.259V386.667H-6.10352e-05V193.333Z" fill="white"/>
</mask>
<g mask="url(#mask7_157_18)">
<path d="M193.259 386.667C139.892 386.667 96.6293 343.387 96.6293 290C96.6293 236.612 139.892 193.333 193.259 193.333C246.626 193.333 289.888 236.612 289.888 290C289.888 343.387 246.626 386.667 193.259 386.667Z" fill="#D2D8B3"/>
<path d="M-3.05176e-05 386.667C-53.367 386.667 -96.6295 343.387 -96.6295 290C-96.6295 236.612 -53.367 193.333 -3.05176e-05 193.333C53.3669 193.333 96.6294 236.612 96.6294 290C96.6294 343.387 53.3669 386.667 -3.05176e-05 386.667Z" fill="#EFD09E"/>
<path d="M96.6294 290C43.2624 290 -6.10352e-05 246.721 -6.10352e-05 193.333C-6.10352e-05 139.946 43.2624 96.6667 96.6294 96.6667C149.996 96.6667 193.259 139.946 193.259 193.333C193.259 246.721 149.996 290 96.6294 290Z" fill="#E5989B"/>
<path d="M96.6294 483.333C43.2624 483.333 -6.10352e-05 440.054 -6.10352e-05 386.667C-6.10352e-05 333.279 43.2624 290 96.6294 290C149.996 290 193.259 333.279 193.259 386.667C193.259 440.054 149.996 483.333 96.6294 483.333Z" fill="#E5989B"/>
</g>
<mask id="mask8_157_18" style="mask-type:luminance" maskUnits="userSpaceOnUse" x="579" y="386" width="195" height="194">
<path d="M579.777 386.667H773.035V580H579.777V386.667Z" fill="white"/>
</mask>
<g mask="url(#mask8_157_18)">
<path d="M579.777 386.667H676.406V580H579.777V386.667Z" fill="#E5989B"/>
</g>
<mask id="mask9_157_18" style="mask-type:luminance" maskUnits="userSpaceOnUse" x="386" y="386" width="194" height="194">
<path d="M386.518 386.667H579.777V580H386.518V386.667Z" fill="white"/>
</mask>
<g mask="url(#mask9_157_18)">
<path d="M579.777 580C526.41 580 483.147 536.721 483.147 483.333C483.147 429.946 526.41 386.667 579.777 386.667C633.144 386.667 676.406 429.946 676.406 483.333C676.406 536.721 633.144 580 579.777 580Z" fill="#B3C6D8"/>
<path d="M386.518 580C333.151 580 289.888 536.721 289.888 483.333C289.888 429.946 333.151 386.667 386.518 386.667C439.885 386.667 483.147 429.946 483.147 483.333C483.147 536.721 439.885 580 386.518 580Z" fill="#E5989B"/>
<path d="M483.147 483.333C429.78 483.333 386.518 440.054 386.518 386.667C386.518 333.279 429.78 290 483.147 290C536.514 290 579.777 333.279 579.777 386.667C579.777 440.054 536.514 483.333 483.147 483.333Z" fill="#B3C6D8"/>
<path d="M483.147 676.667C429.78 676.667 386.518 633.387 386.518 580C386.518 526.612 429.78 483.333 483.147 483.333C536.514 483.333 579.777 526.612 579.777 580C579.777 633.387 536.514 676.667 483.147 676.667Z" fill="#E5989B"/>
</g>
<mask id="mask10_157_18" style="mask-type:luminance" maskUnits="userSpaceOnUse" x="193" y="386" width="194" height="194">
<path d="M193.259 386.667H386.518V580H193.259V386.667Z" fill="white"/>
</mask>
<g mask="url(#mask10_157_18)">
<path d="M386.518 580C333.151 580 289.888 536.721 289.888 483.333C289.888 429.946 333.151 386.667 386.518 386.667C439.885 386.667 483.147 429.946 483.147 483.333C483.147 536.721 439.885 580 386.518 580Z" fill="#D2D8B3"/>
<path d="M193.259 580C139.892 580 96.6296 536.721 96.6296 483.333C96.6296 429.946 139.892 386.667 193.259 386.667C246.626 386.667 289.888 429.946 289.888 483.333C289.888 536.721 246.626 580 193.259 580Z" fill="#D2D8B3"/>
<path d="M289.888 483.333C236.521 483.333 193.259 440.054 193.259 386.667C193.259 333.279 236.521 290 289.888 290C343.255 290 386.518 333.279 386.518 386.667C386.518 440.054 343.255 483.333 289.888 483.333Z" fill="#B3C6D8"/>
<path d="M289.888 676.667C236.521 676.667 193.259 633.387 193.259 580C193.259 526.612 236.521 483.333 289.888 483.333C343.255 483.333 386.518 526.612 386.518 580C386.518 633.387 343.255 676.667 289.888 676.667Z" fill="#D2D8B3"/>
</g>
<mask id="mask11_157_18" style="mask-type:luminance" maskUnits="userSpaceOnUse" x="0" y="386" width="194" height="194">
<path d="M-6.10352e-05 386.667H193.259V580H-6.10352e-05V386.667Z" fill="white"/>
</mask>
<g mask="url(#mask11_157_18)">
<path d="M193.259 580C86.5248 580 -0.00012207 493.442 -0.00012207 386.667C-0.00012207 279.892 86.5248 193.333 193.259 193.333C299.993 193.333 386.518 279.892 386.518 386.667C386.518 493.442 299.993 580 193.259 580Z" fill="#B3C6D8"/>
<path d="M193.259 483.333C139.892 483.333 96.6293 440.054 96.6293 386.667C96.6293 333.279 139.892 290 193.259 290C246.626 290 289.888 333.279 289.888 386.667C289.888 440.054 246.626 483.333 193.259 483.333Z" fill="#E5989B"/>
</g>
</g>
<defs>
<clipPath id="clip0_157_18">
<rect width="580" height="580" fill="white" transform="matrix(-1 0 0 1 580 0)"/>
</clipPath>
</defs>
</svg>
