<svg width="512" height="257" viewBox="0 0 512 257" fill="none" xmlns="http://www.w3.org/2000/svg">
<g clip-path="url(#clip0_249_458)">
<mask id="mask0_249_458" style="mask-type:luminance" maskUnits="userSpaceOnUse" x="0" y="128" width="128" height="129">
<path d="M128 256.088H0V128.315H128V256.088Z" fill="white"/>
</mask>
<g mask="url(#mask0_249_458)">
<path d="M0 128.315C35.3462 128.315 64 156.918 64 192.202C64 227.485 35.3462 256.088 0 256.088C-35.3462 256.088 -64 227.485 -64 192.202C-64 156.918 -35.3462 128.315 0 128.315Z" fill="#B3C6D8"/>
<path d="M128 128.315C163.346 128.315 192 156.918 192 192.202C192 227.485 163.346 256.088 128 256.088C92.6538 256.088 64 227.485 64 192.202C64 156.918 92.6538 128.315 128 128.315Z" fill="#B3C6D8"/>
<path d="M64 192.202C99.3462 192.202 128 220.805 128 256.088C128 291.372 99.3462 319.975 64 319.975C28.6538 319.975 0 291.372 0 256.088C0 220.805 28.6538 192.202 64 192.202Z" fill="#E5989B"/>
<path d="M64 64.4281C99.3462 64.4281 128 93.0312 128 128.315C128 163.599 99.3462 192.202 64 192.202C28.6538 192.202 0 163.599 0 128.315C0 93.0312 28.6538 64.4281 64 64.4281Z" fill="#EFD09E"/>
</g>
<mask id="mask1_249_458" style="mask-type:luminance" maskUnits="userSpaceOnUse" x="128" y="128" width="128" height="129">
<path d="M256 256.088H128V128.315H256V256.088Z" fill="white"/>
</mask>
<g mask="url(#mask1_249_458)">
<path d="M128 128.315C163.346 128.315 192 156.918 192 192.202C192 227.485 163.346 256.088 128 256.088C92.6538 256.088 64 227.485 64 192.202C64 156.918 92.6538 128.315 128 128.315Z" fill="#B3C6D8"/>
<path d="M256 128.315C291.346 128.315 320 156.918 320 192.202C320 227.485 291.346 256.088 256 256.088C220.654 256.088 192 227.485 192 192.202C192 156.918 220.654 128.315 256 128.315Z" fill="#B5838D"/>
</g>
<mask id="mask2_249_458" style="mask-type:luminance" maskUnits="userSpaceOnUse" x="256" y="128" width="128" height="129">
<path d="M384 256.088H256V128.315H384V256.088Z" fill="white"/>
</mask>
<g mask="url(#mask2_249_458)">
<path d="M320 192.202C355.346 192.202 384 220.805 384 256.088C384 291.372 355.346 319.975 320 319.975C284.654 319.975 256 291.372 256 256.088C256 220.805 284.654 192.202 320 192.202Z" fill="#D2D8B3"/>
<path d="M320 64.4281C355.346 64.4281 384 93.0312 384 128.315C384 163.599 355.346 192.202 320 192.202C284.654 192.202 256 163.599 256 128.315C256 93.0312 284.654 64.4281 320 64.4281Z" fill="#B5838D"/>
</g>
<mask id="mask3_249_458" style="mask-type:luminance" maskUnits="userSpaceOnUse" x="384" y="128" width="128" height="129">
<path d="M512 256.088H384V128.315H512V256.088Z" fill="white"/>
</mask>
<g mask="url(#mask3_249_458)">
<path d="M384 128.315C419.346 128.315 448 156.918 448 192.202C448 227.485 419.346 256.088 384 256.088C348.654 256.088 320 227.485 320 192.202C320 156.918 348.654 128.315 384 128.315Z" fill="#B5838D"/>
<path d="M512 128.315C547.346 128.315 576 156.918 576 192.202C576 227.485 547.346 256.088 512 256.088C476.654 256.088 448 227.485 448 192.202C448 156.918 476.654 128.315 512 128.315Z" fill="#B3C6D8"/>
<path d="M448 192.202C483.346 192.202 512 220.805 512 256.088C512 291.372 483.346 319.975 448 319.975C412.654 319.975 384 291.372 384 256.088C384 220.805 412.654 192.202 448 192.202Z" fill="#E5989B"/>
<path d="M448 64.4281C483.346 64.4281 512 93.0312 512 128.315C512 163.599 483.346 192.202 448 192.202C412.654 192.202 384 163.599 384 128.315C384 93.0312 412.654 64.4281 448 64.4281Z" fill="#B3C6D8"/>
</g>
<mask id="mask4_249_458" style="mask-type:luminance" maskUnits="userSpaceOnUse" x="0" y="0" width="128" height="129">
<path d="M128 128.315H0V0.541389H128V128.315Z" fill="white"/>
</mask>
<g mask="url(#mask4_249_458)">
<path d="M64 0.541389C99.3462 0.541389 128 29.1445 128 64.4282C128 99.7119 99.3462 128.315 64 128.315C28.6538 128.315 0 99.7119 0 64.4282C0 29.1445 28.6538 0.541389 64 0.541389Z" fill="#D2D8B3"/>
<path d="M64 32.4848C81.6731 32.4848 96 46.7863 96 64.4282C96 82.07 81.6731 96.3716 64 96.3716C46.3269 96.3716 32 82.07 32 64.4282C32 46.7863 46.3269 32.4848 64 32.4848Z" fill="#B3C6D8"/>
</g>
<mask id="mask5_249_458" style="mask-type:luminance" maskUnits="userSpaceOnUse" x="128" y="0" width="128" height="129">
<path d="M256 128.315H128V0.541389H256V128.315Z" fill="white"/>
</mask>
<g mask="url(#mask5_249_458)">
<path d="M256 0.541275C326.692 0.541275 384 57.7474 384 128.315C384 198.882 326.692 256.088 256 256.088C185.308 256.088 128 198.882 128 128.315C128 57.7474 185.308 0.541275 256 0.541275Z" fill="#EFD09E"/>
<path d="M256 64.4281C291.346 64.4281 320 93.0312 320 128.315C320 163.599 291.346 192.202 256 192.202C220.654 192.202 192 163.599 192 128.315C192 93.0312 220.654 64.4281 256 64.4281Z" fill="#B3C6D8"/>
</g>
<mask id="mask6_249_458" style="mask-type:luminance" maskUnits="userSpaceOnUse" x="256" y="0" width="128" height="129">
<path d="M384 128.315H256V0.541389H384V128.315Z" fill="white"/>
</mask>
<g mask="url(#mask6_249_458)">
<path d="M384 128.315H256V64.4282H384V128.315Z" fill="#B3C6D8"/>
<path d="M384 64.4282H256V0.541447H384V64.4282Z" fill="#D2D8B3"/>
<path d="M352 96.3716H288V64.4282H352V96.3716Z" fill="#B3C6D8"/>
<path d="M352 64.4282H288V32.4848H352V64.4282Z" fill="#D2D8B3"/>
</g>
<mask id="mask7_249_458" style="mask-type:luminance" maskUnits="userSpaceOnUse" x="384" y="0" width="128" height="129">
<path d="M512 128.315H384V0.541389H512V128.315Z" fill="white"/>
</mask>
<g mask="url(#mask7_249_458)">
<path d="M384 0.541389C419.346 0.541389 448 29.1445 448 64.4282C448 99.7119 419.346 128.315 384 128.315C348.654 128.315 320 99.7119 320 64.4282C320 29.1445 348.654 0.541389 384 0.541389Z" fill="#E5989B"/>
<path d="M512 0.541389C547.346 0.541389 576 29.1445 576 64.4282C576 99.7119 547.346 128.315 512 128.315C476.654 128.315 448 99.7119 448 64.4282C448 29.1445 476.654 0.541389 512 0.541389Z" fill="#EFD09E"/>
</g>
</g>
<defs>
<clipPath id="clip0_249_458">
<rect width="512" height="255.547" fill="white" transform="matrix(1 0 0 -1 0 256.088)"/>
</clipPath>
</defs>
</svg>
